<?xml version="1.0" encoding="UTF-8" standalone="no"?>
<!-- Created with Inkscape (http://www.inkscape.org/) -->

<svg
   xmlns:dc="http://purl.org/dc/elements/1.1/"
   xmlns:cc="http://creativecommons.org/ns#"
   xmlns:rdf="http://www.w3.org/1999/02/22-rdf-syntax-ns#"
   xmlns:svg="http://www.w3.org/2000/svg"
   xmlns="http://www.w3.org/2000/svg"
   xmlns:sodipodi="http://sodipodi.sourceforge.net/DTD/sodipodi-0.dtd"
   xmlns:inkscape="http://www.inkscape.org/namespaces/inkscape"
   width="480"
   height="320"
   viewBox="0 0 450 300.00003"
   id="svg4160"
   version="1.1"
   inkscape:version="0.92.3 (2405546, 2018-03-11)"
   sodipodi:docname="bmp_logo.svg">
  <defs
     id="defs4162" />
  <sodipodi:namedview
     id="base"
     pagecolor="#ffffff"
     bordercolor="#666666"
     borderopacity="1.0"
     inkscape:pageopacity="0.0"
     inkscape:pageshadow="2"
     inkscape:zoom="1.903125"
     inkscape:cx="140.60491"
     inkscape:cy="85.963508"
     inkscape:document-units="px"
     inkscape:current-layer="layer4"
     showgrid="true"
     units="px"
     showguides="false"
     inkscape:window-width="2560"
     inkscape:window-height="1411"
     inkscape:window-x="2391"
     inkscape:window-y="-9"
     inkscape:window-maximized="1">
    <inkscape:grid
       type="xygrid"
       id="grid4712"
       originx="185.75762"
       originy="81.371902"
       spacingx="1"
       spacingy="1" />
  </sodipodi:namedview>
  <metadata
     id="metadata4165">
    <rdf:RDF>
      <cc:Work
         rdf:about="">
        <dc:format>image/svg+xml</dc:format>
        <dc:type
           rdf:resource="http://purl.org/dc/dcmitype/StillImage" />
        <dc:title />
      </cc:Work>
    </rdf:RDF>
  </metadata>
  <g
     inkscape:groupmode="layer"
     id="layer4"
     inkscape:label="Fondo"
     style="display:inline"
     transform="translate(185.75763,114.62811)">
    <path
       style="fill:#232323;fill-opacity:1;fill-rule:evenodd;stroke:none;stroke-width:8.02135086;stroke-linecap:butt;stroke-linejoin:miter;stroke-miterlimit:4;stroke-dasharray:none;stroke-opacity:1"
       d="M -185.75763,-114.62811 H 264.2424 V 185.3719 h -450.00003 z"
       id="path4808"
       inkscape:connector-curvature="0" />
    <text
       xml:space="preserve"
       style="font-style:normal;font-variant:normal;font-weight:bold;font-stretch:normal;font-size:39.48359299px;line-height:125%;font-family:Calibri;-inkscape-font-specification:'Calibri, Bold';text-align:start;letter-spacing:0px;word-spacing:0px;writing-mode:lr-tb;text-anchor:start;display:inline;fill:#ffffff;fill-opacity:1;stroke:none;stroke-width:2.25620556px;stroke-linecap:butt;stroke-linejoin:miter;stroke-opacity:1"
       x="-153.0377"
       y="-75.201485"
       id="text4803-5"><tspan
         sodipodi:role="line"
         id="tspan4164"
         x="-153.0377"
         y="-75.201485"
         style="stroke-width:2.25620556px">3D Printerosaurus 3000</tspan></text>
    <g
       transform="matrix(1.0232967,0,0,1.0232967,-139.9606,-61.920924)"
       id="g16"
       style="fill:#fbb351;fill-opacity:1">
      <g
         id="g14"
         style="fill:#fbb351;fill-opacity:1">
        <path
           inkscape:connector-curvature="0"
           d="M 187.095,60.715 C 194.468,53.666 199.09,43.262 193.723,33.667 187.026,21.694 172.71,16.359 159.015,16.687 152.038,3.32 136.14,4.705 132.089,18.798 c -10.852,-0.104 -14.696,8.333 -12,17.954 -10.262,-0.255 -14.632,7.131 -11.488,16.738 -6.115,-0.434 -12.26,1.584 -12.47,6.825 -2.638,-2.522 -6.257,-4.011 -9.939,-3.391 -5.165,0.869 -8.244,4.235 -9.812,8.502 C 74.087,62.86 71.208,61 67.638,61.982 63.583,63.097 61.932,66.969 61.358,71.028 57.702,67.831 53.495,66.856 50.251,69.099 49.725,64.9 46.359,61.27 42.072,59.074 44.657,56.858 46.654,54.051 45.707,50.607 44.85,47.491 42.239,45.689 39.309,44.563 43.837,39.974 45.481,33.784 39.714,28.172 35.271,23.849 29.149,24.638 26.126,28.865 23.715,27.23 20.597,26.588 16.413,27.608 -0.575,31.749 -0.279,57.542 0.111,71.1 c 0.754,26.224 18.482,46.921 43.551,53.859 0.376,0.104 0.71,0.025 1.003,-0.119 -0.145,7.441 0.989,15.924 3.519,20.123 4.076,6.765 7.634,10.678 2.793,19.125 -1.996,3.482 -5.153,5.062 -6.902,8.046 -3.717,6.346 9.646,11.69 13.27,13.148 12.64,5.088 43.957,5.463 55.526,-6.343 5.058,2.971 15.531,2.481 20.062,2.587 9.334,0.216 16.696,-1.817 22.113,-9.645 10.314,-14.9 -15.068,-19.048 -26.761,-18.069 -0.794,-3.325 -1.125,-6.694 -0.773,-10.138 5.077,-2.471 9.279,-6.834 12.037,-13.676 0.899,-2.23 1.532,-4.508 2.033,-6.81 0.53,0.073 1.06,0.154 1.59,0.257 1.287,4.029 3.884,8.241 8.537,8.149 4.487,-0.089 7.469,-4.191 8.996,-7.947 1.757,-4.318 1.057,-9.248 -1.889,-12.835 -3.662,-4.455 -10.341,-4.839 -15.829,-4.134 -0.028,-9.062 -0.692,-18.23 0.897,-26.988 13.797,6.47 35.988,3.474 35.895,-13.564 0.987,-0.542 1.961,-1.169 2.921,-1.832 0.125,0.477 0.301,0.951 0.473,1.399 -1,3.71 4.686,6.631 6.979,2.776 0.921,-1.548 1.671,-3.131 0.635,-4.901 -0.793,-1.35 -2.407,-2.031 -3.692,-2.853 z M 152.311,17.299 c -3.414,0.562 -6.703,1.479 -9.715,2.76 -1.939,0.825 -3.757,1.838 -5.507,2.953 0.043,-0.122 0.131,-0.205 0.156,-0.342 1.78,-9.903 9.638,-11.929 15.066,-5.371 z m -18.716,7.443 c 0.315,0.045 0.65,0.036 0.981,0.008 -3.484,2.603 -6.601,5.726 -9.382,9.233 -1.328,-4.923 -0.918,-10.568 8.401,-9.241 z M 119.348,42.57 c -1.897,3.197 -3.628,6.523 -5.217,9.898 -1.92,-5.53 -0.463,-9.727 5.217,-9.898 z m -8.211,16.616 c -1.411,3.346 -2.72,6.666 -3.948,9.857 -2.244,-1.245 -4.552,-2.229 -6.901,-2.932 0.116,-0.255 0.201,-0.533 0.145,-0.849 3.012,-5.69 6.583,-7.691 10.704,-6.076 z m -20.18,6.049 c -1.845,0.253 -3.716,0.764 -5.614,1.598 -1.182,0.52 -2.434,1.102 -3.721,1.71 1.734,-5.343 5.486,-5.888 9.335,-3.308 z M 66.932,70.78 c 3.56,-1.291 6.041,-0.869 7.5,1.175 -2.617,1.22 -5.312,2.416 -8.018,3.461 0.058,-1.552 0.2,-3.099 0.518,-4.636 z m -16.615,3.674 c 3.721,-7.037 8.018,-0.929 10.142,2.954 -4.259,1.178 -8.378,1.684 -12.052,0.984 0.575,-1.343 1.187,-2.668 1.91,-3.938 z m -7.2,-0.329 c -0.297,0.647 -0.311,1.332 -0.139,1.959 -3.318,-2.318 -5.959,-6.296 -7.463,-12.789 -0.021,-0.09 -0.034,-0.208 -0.055,-0.301 5.961,1.252 10.688,4.526 7.657,11.131 z M 34.685,57.031 c -0.216,-2.423 -0.423,-5.111 -0.717,-7.894 0.746,0.167 1.505,0.278 2.236,0.511 5.416,1.486 1.365,5.446 -1.519,7.383 z M 32.972,42.272 c -0.786,-4.068 -1.983,-7.864 -3.978,-10.641 5.38,-3.527 12.804,4.409 3.978,10.641 z m 107.63,118.724 c 2.802,0.426 5.532,1.209 7.979,2.648 3.435,2.022 -0.347,5.736 -1.859,7.641 -3.654,4.604 -13.787,3.313 -18.836,2.979 -2.703,-0.179 -7.246,-1.598 -11.081,-1.857 3.72,-12.018 -9.233,-17.805 -21.17,-18.999 2.572,-2.438 4.38,-5.876 5.538,-9.62 8.058,2.547 15.956,3.313 22.691,1.334 -0.653,3.774 -0.209,7.563 -1.036,11.383 -0.359,1.663 0.472,3.513 2.237,3.94 4.848,1.171 10.481,-0.218 15.537,0.551 z m 2.327,-49.262 c 4.008,-0.184 8.661,-0.053 11.332,2.787 1.516,1.611 1.506,4.18 0.715,6.682 -0.25,0.79 -1.141,2.335 -1.547,2.804 -0.213,0.246 -0.448,0.473 -0.687,0.695 -0.1,0.092 -0.117,0.11 -0.158,0.151 0.002,-0.01 -0.023,-0.002 -0.121,0.063 -0.146,0.099 -0.308,0.173 -0.465,0.255 -0.038,0.006 -0.136,0.038 -0.268,0.083 -0.049,0.006 -0.09,0.012 -0.146,0.018 -0.044,-0.007 -0.082,-0.012 -0.135,-0.021 -0.066,-0.035 -0.166,-0.084 -0.278,-0.141 -0.04,-0.063 -0.424,-0.385 -0.513,-0.481 -0.26,-0.283 0.018,0.064 -0.373,-0.567 -0.245,-0.396 -0.445,-0.819 -0.642,-1.241 -0.355,-0.767 -0.679,-2.033 -0.931,-2.994 -0.361,-1.377 -1.646,-2.284 -3.04,-2.314 -0.974,-0.021 -2.044,-0.234 -3.119,-0.405 0.186,-1.781 0.312,-3.572 0.376,-5.374 z m 35.557,-52.905 c -14.835,10.019 -28.177,-2.131 -35.501,-14.685 -2.259,-3.87 -7.764,-0.482 -5.913,3.456 1.371,2.92 3.085,5.701 5.055,8.26 -0.538,0.006 -1.118,0.122 -1.73,0.384 -1.19,0.418 -2.316,0.963 -3.38,1.636 -4.836,2.748 0.062,9.386 4.066,6.925 0.005,0.02 0.011,0.041 0.016,0.061 1.274,-0.94 2.484,-1.895 3.708,-2.903 -0.021,-0.017 -0.043,-0.034 -0.064,-0.05 0.579,-0.579 0.842,-1.276 0.926,-1.99 0.936,0.938 1.915,1.823 2.929,2.651 -1.49,0.911 -2.408,2.693 -1.31,5.045 0.39,0.835 0.78,1.67 1.17,2.505 1.444,3.093 6.171,1.443 6.172,-1.672 0,-0.473 0.001,-0.944 0.001,-1.417 0.022,-0.162 0.011,-0.352 0.015,-0.527 5.965,3.036 12.726,4.075 19.728,1.91 -6.35,9.92 -21.647,9.634 -31.103,2.545 -1.93,-1.447 -4.735,0.116 -5.329,2.168 -7.521,25.964 9.325,74.467 -35.1,63.971 -0.144,-0.033 -0.259,0.002 -0.396,-0.017 0.471,-6.922 -1.426,-13.804 -6.23,-17.307 -2.412,-1.758 -4.589,1.503 -3.641,3.641 2.706,6.107 4.343,10.426 2.528,17.174 -1.225,4.556 -4.12,9.543 -8.5,11.639 -0.588,0.281 -0.952,0.763 -1.134,1.315 -0.996,0.153 -1.939,0.339 -2.776,0.579 -4.165,1.195 -2.421,7.417 1.781,6.46 5.996,-1.366 12.004,-0.716 17.895,0.858 7.881,2.105 8.354,12.754 0.906,15.733 -4.637,1.855 -10.032,2.405 -14.923,2.932 -6.765,0.727 -13.629,0.563 -20.401,0.077 -3.032,-0.218 -5.865,-0.76 -8.765,-1.571 -2.359,-1.214 -4.622,-2.59 -6.861,-4.008 4.871,-3.823 12.249,-14.855 10.571,-19.573 -2.802,-7.88 -8.682,-13.361 -10.178,-21.992 -2.234,-12.885 -1.521,-24.5 13.085,-28.677 2.23,-0.639 1.88,-4.42 -0.564,-4.167 -9.478,0.979 -15.951,4.791 -19.138,14.066 -0.685,1.993 -1.106,4.787 -1.309,7.878 C 20.377,109.51 6.767,90.851 6.945,63.754 7.002,55.048 8.136,46.019 12.316,38.273 l 13.478,1.738 c 0.785,2.518 1.265,5.099 1.439,7.742 0.496,4.379 0.64,8.797 1.113,13.182 1.045,9.69 5.501,20.849 16.063,23.484 22.758,5.678 42.928,-19.528 62.854,-7.384 3.539,2.157 6.583,-2.753 3.972,-5.356 13.832,-27.222 32.101,-60.819 67.83,-42.802 14.156,7.139 10.687,22.342 -0.579,29.952 z"
           id="path2"
           style="fill:#fbb351;fill-opacity:1" />
        <g
           id="g8"
           style="fill:#fbb351;fill-opacity:1">
          <path
             inkscape:connector-curvature="0"
             d="m 126.085,104.938 c -4.394,-3.957 -12.423,-3.274 -17.508,-1.268 -1.491,0.588 -1.443,3.1 0.406,2.997 4.245,-0.236 9.46,-1.316 12.85,1.707 1.787,1.594 1.944,3.669 1.441,5.776 -0.157,0.654 -0.396,1.229 -0.385,1.204 -0.154,0.341 -1.042,1.716 -0.671,1.239 -0.186,0.239 -0.396,0.459 -0.608,0.673 -0.11,0.11 -0.138,0.145 -0.17,0.183 -0.019,0.011 -0.009,-0.002 -0.051,0.027 -0.131,0.094 -0.277,0.16 -0.419,0.236 -0.036,0.008 -0.099,0.027 -0.195,0.06 -0.02,0.002 -0.043,0.004 -0.066,0.006 -0.004,-0.054 -0.388,-0.124 -0.173,0.011 0.012,-0.001 0.034,0 0.044,-0.001 -0.016,0.001 -0.028,0 -0.044,0.001 0.02,0.012 0.031,0.021 0.062,0.039 l -0.002,10e-4 c -0.021,-0.012 -0.04,-0.023 -0.066,-0.039 -0.078,0.005 -0.159,0.009 -0.214,0.005 0.149,0.011 0.149,-0.002 0.214,-0.005 -0.139,-0.084 -0.286,-0.176 -0.358,-0.214 -0.215,-0.19 -0.422,-0.393 -0.614,-0.605 -0.942,-1.047 -1.688,-3.874 -3.035,-5.257 -1.282,-1.314 -4.179,-0.867 -4.479,1.183 -0.692,4.721 3.595,10.949 8.661,10.986 4.138,0.029 6.955,-3.866 8.131,-7.395 1.331,-4.001 0.434,-8.682 -2.751,-11.55 z"
             id="path4"
             style="fill:#fbb351;fill-opacity:1" />
          <rect
             x="120.533"
             y="117.786"
             width="0"
             height="0.0060000001"
             id="rect6"
             style="fill:#fbb351;fill-opacity:1" />
        </g>
        <path
           inkscape:connector-curvature="0"
           d="m 177.511,44.46 c -0.045,-1.677 0.195,-3.678 -0.266,-5.313 -0.517,-1.828 -1.938,-2.511 -3.348,-2.423 -1.41,-0.088 -2.832,0.596 -3.349,2.423 -0.372,1.321 -0.19,2.904 -0.232,4.254 -0.076,2.47 -0.36,4.657 0.849,6.889 0.078,0.145 0.23,0.202 0.329,0.326 0.007,0.047 0.009,0.099 0.016,0.146 0.357,2.373 4.417,2.373 4.773,0 0.007,-0.047 0.009,-0.099 0.016,-0.146 0.099,-0.125 0.25,-0.181 0.329,-0.326 1.059,-1.952 0.94,-3.657 0.883,-5.83 z"
           id="path10"
           style="fill:#fbb351;fill-opacity:1" />
        <path
           inkscape:connector-curvature="0"
           d="m 166.25,41.509 c -0.405,-1.032 -1.239,-1.863 -2.223,-2.253 -0.442,-1.442 -1.623,-2.009 -2.831,-1.936 -1.262,-0.077 -2.523,0.517 -2.912,2.105 -0.019,0.074 -0.021,0.152 -0.038,0.225 -0.01,0.051 -0.019,0.1 -0.025,0.151 -0.725,3.306 -0.493,6.951 -0.608,10.305 -0.161,4.664 6.805,4.546 7.166,0 0.18,-2.254 2.48,-6.029 1.471,-8.597 z"
           id="path12"
           style="fill:#fbb351;fill-opacity:1" />
      </g>
    </g>
    <g
       transform="matrix(0.23469759,0,0,0.23469759,104.1834,10.922741)"
       id="g862"
       style="fill:#fbb351;fill-opacity:1">
      <g
         id="g6"
         style="fill:#fbb351;fill-opacity:1">
        <g
           id="g4"
           style="fill:#fbb351;fill-opacity:1">
          <path
             inkscape:connector-curvature="0"
             id="path2-0"
             d="M 448.319,0 H 63.682 C 57.912,0 53.233,4.679 53.233,10.449 v 491.102 c 0,5.77 4.679,10.449 10.449,10.449 h 384.636 c 5.77,0 10.449,-4.679 10.449,-10.449 V 10.449 C 458.768,4.679 454.089,0 448.319,0 Z M 74.131,491.102 V 20.898 h 363.738 v 470.204 z"
             style="fill:#fbb351;fill-opacity:1" />
        </g>
      </g>
      <g
         id="g12"
         style="fill:#fbb351;fill-opacity:1">
        <g
           id="g10"
           style="fill:#fbb351;fill-opacity:1">
          <path
             inkscape:connector-curvature="0"
             id="path8"
             d="M 411.878,38.297 H 104.461 c -5.77,0 -10.449,4.679 -10.449,10.449 v 69.89 34.345 221.506 c 0,5.771 4.678,10.45 10.449,10.45 h 32.651 242.114 10e-4 32.651 c 5.77,0 10.449,-4.679 10.449,-10.449 V 152.98 118.635 48.745 c 0,-5.769 -4.679,-10.448 -10.449,-10.448 z M 114.91,129.085 h 175.281 v 13.447 H 114.91 Z M 368.777,364.038 H 147.561 v -15.162 h 221.216 z m 32.652,0 h -11.753 v -25.612 c 0,-5.77 -4.679,-10.449 -10.449,-10.449 h -10e-4 -42.14 c 2.462,-1.912 4.053,-4.892 4.053,-8.25 v -15.673 c 0,-5.77 -4.679,-10.449 -10.449,-10.449 -5.77,0 -10.449,4.679 -10.449,10.449 v 5.224 h -5.224 c -5.77,0 -10.449,4.679 -10.449,10.449 0,3.358 1.59,6.338 4.053,8.25 h -28.344 c 2.462,-1.912 4.053,-4.892 4.053,-8.25 0,-5.77 -4.679,-10.449 -10.449,-10.449 h -35.259 c -5.77,0 -10.449,4.679 -10.449,10.449 0,3.358 1.59,6.338 4.053,8.25 h -28.344 c 2.462,-1.912 4.053,-4.892 4.053,-8.25 0,-5.77 -4.679,-10.449 -10.449,-10.449 h -15.673 c -5.77,0 -10.449,4.679 -10.449,10.449 0,3.358 1.59,6.338 4.053,8.25 h -38.306 c -5.77,0 -10.449,4.679 -10.449,10.449 v 25.612 H 114.91 V 163.429 h 175.281 v 29.032 c 0,5.77 4.679,10.449 10.449,10.449 h 4.325 v 35.919 c 0,5.77 4.679,10.449 10.449,10.449 h 4.828 v 14.035 c 0,5.77 4.679,10.449 10.449,10.449 5.77,0 10.449,-4.679 10.449,-10.449 v -14.035 h 4.833 c 5.77,0 10.449,-4.679 10.449,-10.449 V 202.91 h 4.321 c 5.77,0 10.449,-4.679 10.449,-10.449 v -29.033 h 30.238 v 200.61 z M 315.412,182.013 h -4.325 V 152.98 118.635 105.042 h 39.205 v 13.593 34.345 29.032 h -4.321 -30.559 z m 20.11,20.898 v 25.47 h -9.661 v -25.47 z m 65.906,-60.38 H 371.19 v -13.447 h 30.238 z m 10e-4,-34.344 H 371.19 V 94.594 c 0,-5.77 -4.679,-10.449 -10.449,-10.449 h -60.102 c -5.77,0 -10.449,4.679 -10.449,10.449 v 13.593 H 114.91 V 59.195 h 286.519 z"
             style="fill:#fbb351;fill-opacity:1" />
        </g>
      </g>
    </g>
    <text
       xml:space="preserve"
       style="font-style:normal;font-variant:normal;font-weight:bold;font-stretch:normal;font-size:30.55165482px;line-height:125%;font-family:Calibri;-inkscape-font-specification:'Calibri, Bold';text-align:start;letter-spacing:0px;word-spacing:0px;writing-mode:lr-tb;text-anchor:start;display:inline;fill:#ffffff;fill-opacity:1;stroke:none;stroke-width:1.74580872px;stroke-linecap:butt;stroke-linejoin:miter;stroke-opacity:1"
       x="-117.91664"
       y="171.8896"
       id="text4803-5-8"><tspan
         sodipodi:role="line"
         id="tspan4164-1"
         x="-117.91664"
         y="171.8896"
         style="stroke-width:1.74580872px">Tamed by Denis Shelema</tspan></text>
  </g>
  <g
     inkscape:groupmode="layer"
     id="layer1"
     inkscape:label="Simbolo"
     transform="translate(185.75763,114.62811)" />
</svg>
