<?xml version="1.0" encoding="UTF-8" standalone="no"?>
<!-- Created with Inkscape (http://www.inkscape.org/) -->

<svg
   xmlns:dc="http://purl.org/dc/elements/1.1/"
   xmlns:cc="http://creativecommons.org/ns#"
   xmlns:rdf="http://www.w3.org/1999/02/22-rdf-syntax-ns#"
   xmlns:svg="http://www.w3.org/2000/svg"
   xmlns="http://www.w3.org/2000/svg"
   xmlns:sodipodi="http://sodipodi.sourceforge.net/DTD/sodipodi-0.dtd"
   xmlns:inkscape="http://www.inkscape.org/namespaces/inkscape"
   width="200"
   height="200"
   viewBox="0 0 187.5 187.50002"
   id="svg4160"
   version="1.1"
   inkscape:version="0.92.4 (5da689c313, 2019-01-14)"
   sodipodi:docname="bmp_preview.svg">
  <defs
     id="defs4162" />
  <sodipodi:namedview
     id="base"
     pagecolor="#ffffff"
     bordercolor="#666666"
     borderopacity="1.0"
     inkscape:pageopacity="0.0"
     inkscape:pageshadow="2"
     inkscape:zoom="6.0900001"
     inkscape:cx="70.93596"
     inkscape:cy="100"
     inkscape:document-units="px"
     inkscape:current-layer="layer4"
     showgrid="true"
     units="px"
     showguides="false"
     inkscape:window-width="2560"
     inkscape:window-height="1411"
     inkscape:window-x="2391"
     inkscape:window-y="-9"
     inkscape:window-maximized="1">
    <inkscape:grid
       type="xygrid"
       id="grid4712"
       originx="54.507612"
       originy="25.121899"
       spacingx="1"
       spacingy="1" />
  </sodipodi:namedview>
  <metadata
     id="metadata4165">
    <rdf:RDF>
      <cc:Work
         rdf:about="">
        <dc:format>image/svg+xml</dc:format>
        <dc:type
           rdf:resource="http://purl.org/dc/dcmitype/StillImage" />
        <dc:title />
      </cc:Work>
    </rdf:RDF>
  </metadata>
  <g
     inkscape:groupmode="layer"
     id="layer4"
     inkscape:label="Fondo"
     style="display:inline"
     transform="translate(54.507619,58.378108)">
    <path
       style="fill:#ffffff;fill-opacity:1;fill-rule:evenodd;stroke:none;stroke-width:4.09337854;stroke-linecap:butt;stroke-linejoin:miter;stroke-miterlimit:4;stroke-dasharray:none;stroke-opacity:1"
       d="M -54.507619,-58.378108 H 132.99239 V 129.1219 H -54.507619 Z"
       id="path4808"
       inkscape:connector-curvature="0" />
    <g
       transform="matrix(3.1747081,0,0,3.1747081,-42.447613,-46.318104)"
       id="g20">
      <g
         id="g18">
        <path
           inkscape:connector-curvature="0"
           d="M 24.832,22.621 V 33.15 c 0.903,0.114 2.122,0.204 3.747,0.204 2.96,0 5.373,-0.7 6.889,-2.079 1.448,-1.311 2.372,-3.343 2.372,-6.051 0,-2.598 -0.905,-4.407 -2.372,-5.603 -1.398,-1.175 -3.363,-1.764 -6.209,-1.764 l -4.427,0.038 v 2.167 l 4.672,-0.034 c 3.479,0 5.422,1.919 5.397,5.284 0,3.864 -2.145,5.85 -5.756,5.828 -0.566,0 -1.15,0 -1.537,-0.067 V 22.62 h -2.776 z"
           id="path2"
           style="fill:#ff9300;fill-opacity:1" />
        <path
           inkscape:connector-curvature="0"
           d="m 18.118,31.155 c -1.451,0 -2.874,-0.584 -3.459,-0.936 l -0.654,2.175 c 0.819,0.536 2.408,1.048 4.254,1.048 3.76,0 5.909,-2.029 5.909,-4.601 0,-2.056 -1.494,-3.458 -3.34,-3.784 V 25.01 c 1.867,-0.657 2.801,-1.962 2.801,-3.553 0,-1.987 -1.61,-3.715 -4.741,-3.715 -1.822,0 -3.506,0.562 -4.369,1.17 l 0.655,2.078 c 0.63,-0.421 1.867,-0.96 3.104,-0.96 1.66,0 2.435,0.866 2.435,1.896 0,1.519 -1.681,2.126 -3.016,2.126 h -1.283 v 2.104 h 1.332 c 1.748,0 3.429,0.771 3.429,2.568 0.029,1.194 -0.862,2.431 -3.057,2.431 z"
           id="path4"
           style="fill:#ff9300;fill-opacity:1" />
        <path
           inkscape:connector-curvature="0"
           d="m 8.832,11.011 8.335,2.675 c 0.059,0.084 0.153,0.137 0.256,0.137 0.032,0 0.065,-0.005 0.098,-0.017 l 0.011,-0.003 7.917,2.541 c 0.03,0.01 0.063,0.015 0.095,0.015 0.031,0 0.063,-0.005 0.094,-0.015 l 7.6,-2.438 c 0.007,0 0.013,0.003 0.02,0.003 0.071,0 0.141,-0.026 0.194,-0.071 L 50.16,8.475 C 50.289,8.434 50.376,8.314 50.376,8.18 50.376,8.045 50.289,7.925 50.16,7.884 L 25.636,0.015 c -0.061,-0.02 -0.127,-0.02 -0.188,0 L 0.926,7.883 C 0.798,7.924 0.71,8.044 0.71,8.179 c 0,0.135 0.088,0.254 0.216,0.295 l 7.906,2.537 c -0.001,0 -0.001,0 0,0 z m 8.695,2.138 -7.605,-2.44 7.012,-2.352 7.378,2.518 z m 0.376,-5.117 7.534,-2.525 7.462,2.488 -7.619,2.555 z m 7.64,7.69 -7.018,-2.252 6.755,-2.264 6.95,2.371 z m 7.677,-2.464 -6.971,-2.378 7.631,-2.559 7.221,2.407 z m 8.293,-7.497 7.534,2.418 -6.978,2.239 C 42.044,10.398 42.016,10.38 41.985,10.37 L 34.858,7.994 41.504,5.765 c 0.003,0 0.006,-0.003 0.009,-0.004 z M 40.517,5.441 33.879,7.667 26.416,5.179 32.912,3.001 Z M 25.543,0.636 31.914,2.68 25.436,4.852 19.045,2.721 Z m -7.49,2.403 c 0.009,0.004 0.017,0.012 0.026,0.016 L 24.457,5.181 16.934,7.703 10.433,5.484 Z M 9.479,5.791 c 0.029,0.024 0.063,0.046 0.103,0.06 L 15.965,8.028 8.924,10.389 2.037,8.18 Z"
           id="path6"
           style="fill:#000000;fill-opacity:1" />
        <path
           inkscape:connector-curvature="0"
           d="M 50.54,42.987 26.019,34.981 c -0.063,-0.021 -0.13,-0.021 -0.193,0 L 1.304,42.987 c -0.128,0.042 -0.214,0.162 -0.214,0.296 0,0.136 0.088,0.255 0.216,0.296 l 7.693,2.469 c 0.023,0.011 0.047,0.019 0.072,0.022 l 16.756,5.377 c 0.03,0.011 0.063,0.016 0.094,0.016 0.032,0 0.064,-0.005 0.095,-0.016 l 24.521,-7.868 c 0.128,-0.041 0.215,-0.16 0.216,-0.296 0,-0.135 -0.086,-0.254 -0.213,-0.296 z m -17.286,-4.989 7.562,2.469 -6.733,2.284 -7.485,-2.511 6.615,-2.218 c 0.015,-0.005 0.026,-0.017 0.041,-0.024 z m -0.144,5.081 -7.354,2.494 -7.555,-2.519 7.419,-2.487 z m -7.189,-7.475 6.357,2.076 -6.659,2.233 -6.363,-2.134 z m -7.65,2.498 c 0.004,0.002 0.008,0.005 0.012,0.006 l 6.359,2.132 -7.421,2.488 -6.493,-2.164 z M 2.409,43.28 9.75,40.884 c 0.014,0.007 0.023,0.017 0.037,0.021 l 6.455,2.152 -7.105,2.382 z m 7.725,2.48 7.088,-2.376 7.561,2.521 -6.904,2.342 z m 15.787,5.065 -7.049,-2.262 6.885,-2.335 7.105,2.37 z m 7.889,-2.53 C 33.777,48.262 33.74,48.234 33.693,48.22 l -6.961,-2.321 7.352,-2.494 7.316,2.454 z m 8.589,-2.756 -7.346,-2.464 6.655,-2.257 c 0.024,-0.008 0.045,-0.024 0.065,-0.039 l 7.66,2.5 z"
           id="path8"
           style="fill:#000000;fill-opacity:1" />
        <path
           inkscape:connector-curvature="0"
           d="m 1.09,10.664 v 29.175 c 0,0.171 0.139,0.311 0.31,0.311 0.173,0 0.312,-0.139 0.312,-0.311 V 10.664 c 0,-0.171 -0.139,-0.311 -0.312,-0.311 -0.171,10e-4 -0.31,0.14 -0.31,0.311 z"
           id="path10"
           style="fill:#000000;fill-opacity:1" />
        <path
           inkscape:connector-curvature="0"
           d="M 9.276,13.893 V 36.61 c 0,0.146 0.118,0.265 0.265,0.265 0.146,0 0.264,-0.118 0.264,-0.265 V 13.893 c 0,-0.146 -0.118,-0.265 -0.264,-0.265 -0.147,0 -0.265,0.118 -0.265,0.265 z"
           id="path12"
           style="fill:#000000;fill-opacity:1" />
        <path
           inkscape:connector-curvature="0"
           d="m 49.86,10.421 c -0.172,0 -0.311,0.139 -0.311,0.311 v 29.175 c 0,0.173 0.139,0.312 0.311,0.312 0.172,0 0.312,-0.139 0.312,-0.312 V 10.731 c -10e-4,-0.17 -0.14,-0.31 -0.312,-0.31 z"
           id="path14"
           style="fill:#000000" />
        <path
           inkscape:connector-curvature="0"
           d="m 41.458,13.96 v 22.719 c 0,0.146 0.118,0.265 0.266,0.265 0.146,0 0.264,-0.119 0.264,-0.265 V 13.96 c 0,-0.146 -0.118,-0.265 -0.264,-0.265 -0.148,0 -0.266,0.118 -0.266,0.265 z"
           id="path16"
           style="fill:#000000;fill-opacity:1" />
      </g>
    </g>
  </g>
  <g
     inkscape:groupmode="layer"
     id="layer1"
     inkscape:label="Simbolo"
     transform="translate(54.507619,58.378108)" />
</svg>
