<?xml version="1.0" encoding="UTF-8" standalone="no"?>
<!-- Created with Inkscape (http://www.inkscape.org/) -->

<svg
   xmlns:dc="http://purl.org/dc/elements/1.1/"
   xmlns:cc="http://creativecommons.org/ns#"
   xmlns:rdf="http://www.w3.org/1999/02/22-rdf-syntax-ns#"
   xmlns:svg="http://www.w3.org/2000/svg"
   xmlns="http://www.w3.org/2000/svg"
   xmlns:sodipodi="http://sodipodi.sourceforge.net/DTD/sodipodi-0.dtd"
   xmlns:inkscape="http://www.inkscape.org/namespaces/inkscape"
   width="63.999996"
   height="63.999996"
   viewBox="0 0 59.999999 60.000002"
   id="svg4160"
   version="1.1"
   inkscape:version="0.92.4 (5da689c313, 2019-01-14)"
   sodipodi:docname="bmp_bed_state.svg">
  <defs
     id="defs4162" />
  <sodipodi:namedview
     id="base"
     pagecolor="#ffffff"
     bordercolor="#666666"
     borderopacity="1.0"
     inkscape:pageopacity="0.0"
     inkscape:pageshadow="2"
     inkscape:zoom="19.031251"
     inkscape:cx="22.699506"
     inkscape:cy="31.999998"
     inkscape:document-units="px"
     inkscape:current-layer="layer4"
     showgrid="true"
     units="px"
     showguides="false"
     inkscape:window-width="2560"
     inkscape:window-height="1411"
     inkscape:window-x="2391"
     inkscape:window-y="-9"
     inkscape:window-maximized="1">
    <inkscape:grid
       type="xygrid"
       id="grid4712"
       originx="-4.9999999"
       originy="-30.000001"
       spacingx="1"
       spacingy="1" />
  </sodipodi:namedview>
  <metadata
     id="metadata4165">
    <rdf:RDF>
      <cc:Work
         rdf:about="">
        <dc:format>image/svg+xml</dc:format>
        <dc:type
           rdf:resource="http://purl.org/dc/dcmitype/StillImage" />
        <dc:title />
      </cc:Work>
    </rdf:RDF>
  </metadata>
  <g
     inkscape:groupmode="layer"
     id="layer4"
     inkscape:label="Fondo"
     style="display:inline"
     transform="translate(-5,-14)">
    <path
       style="fill:#232323;fill-opacity:1;fill-rule:evenodd;stroke:none;stroke-width:1.30988097;stroke-linecap:butt;stroke-linejoin:miter;stroke-miterlimit:4;stroke-dasharray:none;stroke-opacity:1"
       d="M 5,14 H 65 V 74 H 5 Z"
       id="path4808"
       inkscape:connector-curvature="0" />
  </g>
  <g
     inkscape:groupmode="layer"
     id="layer1"
     inkscape:label="Simbolo"
     transform="translate(-5,-14)">
    <path
       style="fill:none;fill-opacity:1;stroke:#ffffff;stroke-width:0;stroke-linecap:round;stroke-linejoin:round;stroke-miterlimit:4;stroke-dasharray:none;stroke-opacity:1"
       d="m 36.029965,16.619161 3.21242,-1.25 3.212421,1.25 v 47.687531 l -3.212421,0.892857 -3.21242,-0.892857 z"
       id="rect4760-8"
       inkscape:connector-curvature="0"
       sodipodi:nodetypes="ccccccc" />
    <g
       id="g828"
       transform="translate(-5.5357824,1.4305177)">
      <path
         sodipodi:nodetypes="ccccc"
         inkscape:connector-curvature="0"
         id="path4432"
         d="M 38.885014,48.570075 14.483148,63.358497 H 49.686414 L 66.58828,48.748647 Z"
         style="fill:none;fill-rule:evenodd;stroke:#ffffff;stroke-width:3;stroke-linecap:butt;stroke-linejoin:round;stroke-miterlimit:4;stroke-dasharray:none;stroke-opacity:1" />
      <path
         sodipodi:nodetypes="cssssc"
         inkscape:connector-curvature="0"
         id="path4434"
         d="m 32.825393,25.942337 c 0,0 4.297062,4.866713 4.079832,7.62116 -0.16145,2.047151 -3.752831,3.272536 -3.898507,5.320432 -0.15243,2.142847 3.189558,3.750169 3.263866,5.895614 0.08507,2.456252 -3.196392,4.445587 -3.263866,6.902183 -0.06368,2.318578 2.719888,6.614591 2.719888,6.614591"
         style="fill:none;fill-rule:evenodd;stroke:#fbb351;stroke-width:2;stroke-linecap:butt;stroke-linejoin:round;stroke-miterlimit:4;stroke-dasharray:none;stroke-opacity:1" />
      <path
         sodipodi:nodetypes="cssssc"
         inkscape:connector-curvature="0"
         id="path4434-1"
         d="m 41.307536,23.620908 c 0,0 4.297062,4.866713 4.079832,7.62116 -0.16145,2.047151 -3.752831,3.272536 -3.898507,5.320432 -0.15243,2.142847 3.189558,3.750169 3.263866,5.895614 0.08507,2.456252 -3.196392,4.445587 -3.263866,6.902183 -0.06368,2.318578 2.719888,6.614591 2.719888,6.614591"
         style="fill:none;fill-rule:evenodd;stroke:#fbb351;stroke-width:2;stroke-linecap:butt;stroke-linejoin:round;stroke-miterlimit:4;stroke-dasharray:none;stroke-opacity:1" />
      <path
         sodipodi:nodetypes="cssssc"
         inkscape:connector-curvature="0"
         id="path4434-0"
         d="m 50.146822,22.370908 c 0,0 4.297062,4.866713 4.079832,7.62116 -0.16145,2.047151 -3.752831,3.272536 -3.898507,5.320432 -0.15243,2.142847 3.189558,3.750169 3.263866,5.895614 0.08507,2.456252 -3.196392,4.445587 -3.263866,6.902183 -0.06368,2.318578 2.719888,6.614591 2.719888,6.614591"
         style="fill:none;fill-rule:evenodd;stroke:#fbb351;stroke-width:2;stroke-linecap:butt;stroke-linejoin:round;stroke-miterlimit:4;stroke-dasharray:none;stroke-opacity:1" />
    </g>
  </g>
</svg>
