<?xml version="1.0" encoding="UTF-8" standalone="no"?>
<!-- Created with Inkscape (http://www.inkscape.org/) -->

<svg
   xmlns:dc="http://purl.org/dc/elements/1.1/"
   xmlns:cc="http://creativecommons.org/ns#"
   xmlns:rdf="http://www.w3.org/1999/02/22-rdf-syntax-ns#"
   xmlns:svg="http://www.w3.org/2000/svg"
   xmlns="http://www.w3.org/2000/svg"
   xmlns:sodipodi="http://sodipodi.sourceforge.net/DTD/sodipodi-0.dtd"
   xmlns:inkscape="http://www.inkscape.org/namespaces/inkscape"
   width="94.157356"
   height="112.5706"
   viewBox="0 0 88.272525 105.53495"
   id="svg4160"
   version="1.1"
   inkscape:version="0.92.3 (2405546, 2018-03-11)"
   sodipodi:docname="bmp_cloud.svg">
  <defs
     id="defs4162" />
  <sodipodi:namedview
     id="base"
     pagecolor="#ffffff"
     bordercolor="#666666"
     borderopacity="1.0"
     inkscape:pageopacity="0.0"
     inkscape:pageshadow="2"
     inkscape:zoom="10.979568"
     inkscape:cx="27.369368"
     inkscape:cy="50.680203"
     inkscape:document-units="px"
     inkscape:current-layer="layer1"
     showgrid="true"
     units="px"
     showguides="true"
     inkscape:window-width="2560"
     inkscape:window-height="1411"
     inkscape:window-x="2391"
     inkscape:window-y="-9"
     inkscape:window-maximized="1">
    <inkscape:grid
       type="xygrid"
       id="grid4712"
       originx="4.8938755"
       originy="0.77255123"
       spacingx="1"
       spacingy="1" />
  </sodipodi:namedview>
  <metadata
     id="metadata4165">
    <rdf:RDF>
      <cc:Work
         rdf:about="">
        <dc:format>image/svg+xml</dc:format>
        <dc:type
           rdf:resource="http://purl.org/dc/dcmitype/StillImage" />
        <dc:title />
      </cc:Work>
    </rdf:RDF>
  </metadata>
  <g
     inkscape:groupmode="layer"
     id="layer4"
     inkscape:label="Fondo"
     style="display:inline"
     transform="translate(4.8938755,0.76239738)">
    <path
       style="fill:#000000;fill-opacity:1;fill-rule:evenodd;stroke:none;stroke-width:2.10713077;stroke-linecap:butt;stroke-linejoin:miter;stroke-miterlimit:4;stroke-dasharray:none;stroke-opacity:1"
       d="M -4.8938755,-0.76239738 H 83.378647 V 104.77255 H -4.8938755 Z"
       id="path4808"
       inkscape:connector-curvature="0" />
  </g>
  <g
     inkscape:groupmode="layer"
     id="layer1"
     inkscape:label="Simbolo"
     transform="translate(4.8938755,0.76239738)">
    <g
       transform="matrix(0.44887023,0,0,0.50573944,7.6283435,4.5427145)"
       id="surface1"
       style="stroke:#ffffff;stroke-opacity:1">
      <path
         inkscape:connector-curvature="0"
         style="fill:#ffffff;fill-opacity:1;fill-rule:nonzero;stroke:#ffffff;stroke-width:0.99951959;stroke-miterlimit:4;stroke-dasharray:none;stroke-opacity:1"
         d="M 51,126 C 37.078125,126 24.75,117.1875 20.0625,104.22656 7.78125,98.179688 0,85.851563 0,72 0,52.148438 16.148438,36 36,36 c 0.515625,0 1.03125,0.02344 1.523438,0.04687 C 45.328125,24.820313 58.195313,18 72,18 90.703125,18 107.03906,30.5625 112.21875,48.070313 129.51562,46.78125 144,60.867188 144,78 c 0,16.546875 -13.45313,30 -30,30 -1.42969,0 -2.88281,-0.11719 -4.35937,-0.35156 C 104.76563,115.28906 96.328125,120 87,120 82.429688,120 77.976563,118.82813 73.992188,116.60156 67.875,122.57813 59.625,126 51,126 Z M 36,48 c -13.242187,0 -24,10.757813 -24,24 0,9.867188 5.953125,18.609375 15.1875,22.265625 l 2.835938,1.125 0.773437,2.929688 C 33.210938,107.55469 41.53125,114 51,114 c 6.773438,0 13.148438,-3.32812 17.109375,-8.90625 l 3.914063,-5.507812 5.015625,4.523442 C 79.007813,105.86719 82.335938,108 87,108 c 6.164063,0 11.625,-3.72656 13.92188,-9.515625 l 2.0625,-5.273437 5.39062,1.78125 C 110.4375,95.671875 112.28906,96 114,96 c 9.91406,0 18,-8.085937 18,-18 0,-9.914062 -8.08594,-18 -18,-18 -1.40625,0 -2.92969,0.234375 -4.78125,0.75 l -6.60937,1.851563 -0.9375,-6.796875 C 99.609375,41.085938 86.859375,30 72,30 61.148438,30 51.117188,35.90625 45.820313,45.398438 l -2.039063,3.632812 -4.125,-0.632812 C 38.460938,48.210938 37.242188,48 36,48 Z"
         id="path2" />
    </g>
  </g>
</svg>
